<svg width="412" height="266" viewBox="0 0 412 266" fill="none" xmlns="http://www.w3.org/2000/svg">
<rect y="93" width="412" height="106" fill="white"/>
<rect x="85" width="266" height="266" rx="20" fill="#A4B1B5"/>
<path d="M162.509 203.886H167.736L170.364 207.267L172.949 210.278L177.821 216.386H172.082L168.73 212.267L167.011 209.824L162.509 203.886ZM178.261 199.455C178.261 202.627 177.66 205.326 176.457 207.551C175.264 209.777 173.635 211.476 171.571 212.651C169.516 213.815 167.205 214.398 164.639 214.398C162.054 214.398 159.734 213.811 157.679 212.636C155.624 211.462 154 209.762 152.807 207.537C151.614 205.312 151.017 202.617 151.017 199.455C151.017 196.282 151.614 193.583 152.807 191.358C154 189.133 155.624 187.437 157.679 186.273C159.734 185.098 162.054 184.511 164.639 184.511C167.205 184.511 169.516 185.098 171.571 186.273C173.635 187.437 175.264 189.133 176.457 191.358C177.66 193.583 178.261 196.282 178.261 199.455ZM172.026 199.455C172.026 197.4 171.718 195.667 171.102 194.256C170.496 192.845 169.639 191.775 168.531 191.045C167.423 190.316 166.126 189.952 164.639 189.952C163.152 189.952 161.855 190.316 160.747 191.045C159.639 191.775 158.777 192.845 158.162 194.256C157.556 195.667 157.253 197.4 157.253 199.455C157.253 201.509 157.556 203.242 158.162 204.653C158.777 206.064 159.639 207.134 160.747 207.864C161.855 208.593 163.152 208.957 164.639 208.957C166.126 208.957 167.423 208.593 168.531 207.864C169.639 207.134 170.496 206.064 171.102 204.653C171.718 203.242 172.026 201.509 172.026 199.455ZM200.786 184.909H206.937V203.801C206.937 205.922 206.43 207.778 205.417 209.369C204.413 210.96 203.007 212.201 201.198 213.091C199.389 213.972 197.282 214.412 194.877 214.412C192.462 214.412 190.351 213.972 188.542 213.091C186.733 212.201 185.327 210.96 184.323 209.369C183.319 207.778 182.817 205.922 182.817 203.801V184.909H188.968V203.276C188.968 204.384 189.21 205.368 189.692 206.23C190.185 207.092 190.876 207.769 191.766 208.261C192.656 208.754 193.693 209 194.877 209C196.07 209 197.107 208.754 197.988 208.261C198.878 207.769 199.565 207.092 200.048 206.23C200.54 205.368 200.786 204.384 200.786 203.276V184.909ZM217.011 214H210.42L220.463 184.909H228.389L238.418 214H231.827L224.54 191.557H224.312L217.011 214ZM216.599 202.565H232.168V207.366H216.599V202.565Z" fill="#385499"/>
<path d="M245.811 184.909V214H242.459V184.909H245.811ZM251.951 214V192.182H255.303V214H251.951ZM253.656 188.545C253.002 188.545 252.439 188.323 251.965 187.878C251.501 187.433 251.269 186.898 251.269 186.273C251.269 185.648 251.501 185.113 251.965 184.668C252.439 184.223 253.002 184 253.656 184C254.309 184 254.868 184.223 255.332 184.668C255.805 185.113 256.042 185.648 256.042 186.273C256.042 186.898 255.805 187.433 255.332 187.878C254.868 188.323 254.309 188.545 253.656 188.545ZM270.932 192.182V195.023H259.625V192.182H270.932ZM262.92 186.955H266.273V207.75C266.273 208.697 266.41 209.407 266.685 209.881C266.969 210.345 267.329 210.657 267.764 210.818C268.209 210.97 268.678 211.045 269.17 211.045C269.54 211.045 269.843 211.027 270.08 210.989C270.316 210.941 270.506 210.903 270.648 210.875L271.33 213.886C271.102 213.972 270.785 214.057 270.378 214.142C269.971 214.237 269.455 214.284 268.83 214.284C267.883 214.284 266.955 214.08 266.045 213.673C265.146 213.266 264.398 212.646 263.801 211.812C263.214 210.979 262.92 209.928 262.92 208.659V186.955ZM284.888 214.455C282.786 214.455 280.972 213.991 279.447 213.062C277.932 212.125 276.763 210.818 275.939 209.142C275.125 207.456 274.717 205.496 274.717 203.261C274.717 201.027 275.125 199.057 275.939 197.352C276.763 195.638 277.909 194.303 279.376 193.347C280.854 192.381 282.577 191.898 284.547 191.898C285.683 191.898 286.805 192.087 287.913 192.466C289.021 192.845 290.03 193.46 290.939 194.312C291.848 195.155 292.572 196.273 293.112 197.665C293.652 199.057 293.922 200.771 293.922 202.807V204.227H277.104V201.33H290.513C290.513 200.098 290.267 199 289.774 198.034C289.291 197.068 288.6 196.306 287.7 195.747C286.81 195.188 285.759 194.909 284.547 194.909C283.212 194.909 282.056 195.241 281.081 195.903C280.115 196.557 279.372 197.409 278.851 198.46C278.33 199.511 278.07 200.638 278.07 201.841V203.773C278.07 205.42 278.354 206.817 278.922 207.963C279.5 209.099 280.3 209.966 281.322 210.562C282.345 211.15 283.534 211.443 284.888 211.443C285.768 211.443 286.564 211.32 287.274 211.074C287.994 210.818 288.614 210.439 289.135 209.938C289.656 209.426 290.058 208.792 290.342 208.034L293.581 208.943C293.24 210.042 292.667 211.008 291.862 211.841C291.057 212.665 290.063 213.309 288.879 213.773C287.696 214.227 286.365 214.455 284.888 214.455Z" fill="#363636"/>
<g filter="url(#filter0_di_1_31)">
<path d="M302 89C302 114.957 265.735 136 221 136C176.265 136 140 114.957 140 89C140 63.0426 176.265 42 221 42C265.735 42 302 63.0426 302 89Z" fill="#363636"/>
<path d="M305 92.5C305 118.734 268.511 140 223.5 140C178.489 140 142 118.734 142 92.5C142 66.2665 178.489 45 223.5 45C268.511 45 305 66.2665 305 92.5Z" fill="white"/>
<g filter="url(#filter1_ddi_1_31)">
<circle cx="218.478" cy="91.6087" r="17.6522" fill="#385499"/>
</g>
<circle cx="222.891" cy="80.8913" r="3.15217" fill="#D9D9D9"/>
<circle cx="227.935" cy="87.1956" r="1.8913" fill="#D9D9D9"/>
</g>
<defs>
<filter id="filter0_di_1_31" x="136" y="38" width="173" height="110" filterUnits="userSpaceOnUse" color-interpolation-filters="sRGB">
<feFlood flood-opacity="0" result="BackgroundImageFix"/>
<feColorMatrix in="SourceAlpha" type="matrix" values="0 0 0 0 0 0 0 0 0 0 0 0 0 0 0 0 0 0 127 0" result="hardAlpha"/>
<feOffset dy="4"/>
<feGaussianBlur stdDeviation="2"/>
<feComposite in2="hardAlpha" operator="out"/>
<feColorMatrix type="matrix" values="0 0 0 0 0 0 0 0 0 0 0 0 0 0 0 0 0 0 0.25 0"/>
<feBlend mode="normal" in2="BackgroundImageFix" result="effect1_dropShadow_1_31"/>
<feBlend mode="normal" in="SourceGraphic" in2="effect1_dropShadow_1_31" result="shape"/>
<feColorMatrix in="SourceAlpha" type="matrix" values="0 0 0 0 0 0 0 0 0 0 0 0 0 0 0 0 0 0 127 0" result="hardAlpha"/>
<feOffset dx="-4" dy="-8"/>
<feGaussianBlur stdDeviation="2"/>
<feComposite in2="hardAlpha" operator="arithmetic" k2="-1" k3="1"/>
<feColorMatrix type="matrix" values="0 0 0 0 0.699722 0 0 0 0 0.733333 0 0 0 0 0.731317 0 0 0 1 0"/>
<feBlend mode="normal" in2="shape" result="effect2_innerShadow_1_31"/>
</filter>
<filter id="filter1_ddi_1_31" x="196.826" y="71.9565" width="43.3044" height="45.3044" filterUnits="userSpaceOnUse" color-interpolation-filters="sRGB">
<feFlood flood-opacity="0" result="BackgroundImageFix"/>
<feColorMatrix in="SourceAlpha" type="matrix" values="0 0 0 0 0 0 0 0 0 0 0 0 0 0 0 0 0 0 127 0" result="hardAlpha"/>
<feOffset dy="4"/>
<feGaussianBlur stdDeviation="2"/>
<feComposite in2="hardAlpha" operator="out"/>
<feColorMatrix type="matrix" values="0 0 0 0 0 0 0 0 0 0 0 0 0 0 0 0 0 0 0.25 0"/>
<feBlend mode="normal" in2="BackgroundImageFix" result="effect1_dropShadow_1_31"/>
<feColorMatrix in="SourceAlpha" type="matrix" values="0 0 0 0 0 0 0 0 0 0 0 0 0 0 0 0 0 0 127 0" result="hardAlpha"/>
<feOffset dy="4"/>
<feGaussianBlur stdDeviation="2"/>
<feComposite in2="hardAlpha" operator="out"/>
<feColorMatrix type="matrix" values="0 0 0 0 0 0 0 0 0 0 0 0 0 0 0 0 0 0 0.25 0"/>
<feBlend mode="normal" in2="effect1_dropShadow_1_31" result="effect2_dropShadow_1_31"/>
<feBlend mode="normal" in="SourceGraphic" in2="effect2_dropShadow_1_31" result="shape"/>
<feColorMatrix in="SourceAlpha" type="matrix" values="0 0 0 0 0 0 0 0 0 0 0 0 0 0 0 0 0 0 127 0" result="hardAlpha"/>
<feOffset dx="2" dy="-2"/>
<feGaussianBlur stdDeviation="3"/>
<feComposite in2="hardAlpha" operator="arithmetic" k2="-1" k3="1"/>
<feColorMatrix type="matrix" values="0 0 0 0 0.2125 0 0 0 0 0.208073 0 0 0 0 0.208073 0 0 0 0.71 0"/>
<feBlend mode="normal" in2="shape" result="effect3_innerShadow_1_31"/>
</filter>
</defs>
</svg>
