<svg width="148" height="48" viewBox="0 0 148 48" fill="none" xmlns="http://www.w3.org/2000/svg">
<path d="M13.5085 28.8864H18.7358L21.3636 32.267L23.9489 35.2784L28.821 41.3864H23.0824L19.7301 37.267L18.0114 34.8239L13.5085 28.8864ZM29.2614 24.4545C29.2614 27.6269 28.66 30.3258 27.4574 32.5511C26.2642 34.7765 24.6354 36.4763 22.571 37.6506C20.5161 38.8153 18.2055 39.3977 15.6392 39.3977C13.054 39.3977 10.7339 38.8106 8.67898 37.6364C6.62405 36.4621 5 34.7623 3.80682 32.5369C2.61364 30.3116 2.01705 27.6174 2.01705 24.4545C2.01705 21.2822 2.61364 18.5833 3.80682 16.358C5 14.1326 6.62405 12.4375 8.67898 11.2727C10.7339 10.0985 13.054 9.51136 15.6392 9.51136C18.2055 9.51136 20.5161 10.0985 22.571 11.2727C24.6354 12.4375 26.2642 14.1326 27.4574 16.358C28.66 18.5833 29.2614 21.2822 29.2614 24.4545ZM23.0256 24.4545C23.0256 22.3996 22.7178 20.6667 22.1023 19.2557C21.4962 17.8447 20.6392 16.7746 19.5312 16.0455C18.4233 15.3163 17.1259 14.9517 15.6392 14.9517C14.1525 14.9517 12.8551 15.3163 11.7472 16.0455C10.6392 16.7746 9.77746 17.8447 9.16193 19.2557C8.55587 20.6667 8.25284 22.3996 8.25284 24.4545C8.25284 26.5095 8.55587 28.2424 9.16193 29.6534C9.77746 31.0644 10.6392 32.1345 11.7472 32.8636C12.8551 33.5928 14.1525 33.9574 15.6392 33.9574C17.1259 33.9574 18.4233 33.5928 19.5312 32.8636C20.6392 32.1345 21.4962 31.0644 22.1023 29.6534C22.7178 28.2424 23.0256 26.5095 23.0256 24.4545ZM51.7862 9.90909H57.9368V28.8011C57.9368 30.9223 57.4302 32.7784 56.4169 34.3693C55.4131 35.9602 54.0069 37.2008 52.1982 38.0909C50.3894 38.9716 48.2824 39.4119 45.8771 39.4119C43.4624 39.4119 41.3506 38.9716 39.5419 38.0909C37.7332 37.2008 36.3269 35.9602 35.3232 34.3693C34.3194 32.7784 33.8175 30.9223 33.8175 28.8011V9.90909H39.968V28.2756C39.968 29.3835 40.2095 30.3684 40.6925 31.2301C41.1849 32.0919 41.8762 32.7689 42.7663 33.2614C43.6565 33.7538 44.6934 34 45.8771 34C47.0703 34 48.1072 33.7538 48.9879 33.2614C49.8781 32.7689 50.5646 32.0919 51.0476 31.2301C51.54 30.3684 51.7862 29.3835 51.7862 28.2756V9.90909ZM68.0114 39H61.4205L71.4631 9.90909H79.3892L89.4176 39H82.8267L75.5398 16.5568H75.3125L68.0114 39ZM67.5994 27.5653H83.1676V32.3665H67.5994V27.5653Z" fill="#385499"/>
<path d="M97.4205 9.90909V39H94.0682V9.90909H97.4205ZM103.56 39V17.1818H106.913V39H103.56ZM105.265 13.5455C104.612 13.5455 104.048 13.3229 103.575 12.8778C103.111 12.4328 102.879 11.8977 102.879 11.2727C102.879 10.6477 103.111 10.1127 103.575 9.66761C104.048 9.22254 104.612 9 105.265 9C105.918 9 106.477 9.22254 106.941 9.66761C107.415 10.1127 107.651 10.6477 107.651 11.2727C107.651 11.8977 107.415 12.4328 106.941 12.8778C106.477 13.3229 105.918 13.5455 105.265 13.5455ZM122.541 17.1818V20.0227H111.234V17.1818H122.541ZM114.53 11.9545H117.882V32.75C117.882 33.697 118.019 34.4072 118.294 34.8807C118.578 35.3447 118.938 35.6572 119.374 35.8182C119.819 35.9697 120.287 36.0455 120.78 36.0455C121.149 36.0455 121.452 36.0265 121.689 35.9886C121.926 35.9413 122.115 35.9034 122.257 35.875L122.939 38.8864C122.712 38.9716 122.394 39.0568 121.987 39.142C121.58 39.2367 121.064 39.2841 120.439 39.2841C119.492 39.2841 118.564 39.0805 117.655 38.6733C116.755 38.2661 116.007 37.6458 115.411 36.8125C114.823 35.9792 114.53 34.928 114.53 33.6591V11.9545ZM136.497 39.4545C134.395 39.4545 132.581 38.9905 131.057 38.0625C129.542 37.125 128.372 35.8182 127.548 34.142C126.734 32.4564 126.327 30.4962 126.327 28.2614C126.327 26.0265 126.734 24.0568 127.548 22.3523C128.372 20.6383 129.518 19.303 130.986 18.3466C132.463 17.3807 134.187 16.8977 136.156 16.8977C137.293 16.8977 138.415 17.0871 139.523 17.4659C140.631 17.8447 141.639 18.4602 142.548 19.3125C143.457 20.1553 144.182 21.2727 144.722 22.6648C145.261 24.0568 145.531 25.7708 145.531 27.8068V29.2273H128.713V26.3295H142.122C142.122 25.0985 141.876 24 141.384 23.0341C140.901 22.0682 140.209 21.3059 139.31 20.7472C138.42 20.1884 137.368 19.9091 136.156 19.9091C134.821 19.9091 133.666 20.2405 132.69 20.9034C131.724 21.5568 130.981 22.4091 130.46 23.4602C129.939 24.5114 129.679 25.6383 129.679 26.8409V28.7727C129.679 30.4205 129.963 31.8172 130.531 32.9631C131.109 34.0994 131.909 34.9659 132.932 35.5625C133.955 36.1496 135.143 36.4432 136.497 36.4432C137.378 36.4432 138.173 36.3201 138.884 36.0739C139.603 35.8182 140.223 35.4394 140.744 34.9375C141.265 34.4261 141.668 33.7917 141.952 33.0341L145.19 33.9432C144.849 35.0417 144.277 36.0076 143.472 36.8409C142.667 37.6648 141.672 38.3087 140.489 38.7727C139.305 39.2273 137.974 39.4545 136.497 39.4545Z" fill="#383838"/>
</svg>
